<mxfile host="Electron" modified="2023-05-04T16:24:09.832Z" agent="Mozilla/5.0 (Windows NT 10.0; Win64; x64) AppleWebKit/537.36 (KHTML, like Gecko) draw.io/21.2.1 Chrome/112.0.5615.87 Electron/24.1.2 Safari/537.36" etag="dhqVxwcMcLQeg7-yB4oB" version="21.2.1" type="device">
  <diagram name="Page-1" id="-rXXLq7zks7h2L_Nql-0">
    <mxGraphModel dx="2869" dy="1851" grid="1" gridSize="10" guides="1" tooltips="1" connect="1" arrows="1" fold="1" page="0" pageScale="1" pageWidth="850" pageHeight="1100" math="0" shadow="0">
      <root>
        <mxCell id="0" />
        <mxCell id="1" parent="0" />
        <mxCell id="4Jj8VpBBIwu2APV6J5tJ-1" value="&lt;font style=&quot;font-size: 50px;&quot;&gt;Start&lt;/font&gt;" style="ellipse;whiteSpace=wrap;html=1;" vertex="1" parent="1">
          <mxGeometry x="178.3" y="-280" width="330.01" height="220" as="geometry" />
        </mxCell>
        <mxCell id="4Jj8VpBBIwu2APV6J5tJ-2" value="" style="endArrow=classic;html=1;rounded=0;exitX=0.5;exitY=1;exitDx=0;exitDy=0;entryX=0.5;entryY=0;entryDx=0;entryDy=0;" edge="1" parent="1" source="4Jj8VpBBIwu2APV6J5tJ-1" target="4Jj8VpBBIwu2APV6J5tJ-3">
          <mxGeometry width="50" height="50" relative="1" as="geometry">
            <mxPoint x="343.31500000000005" y="-11.25" as="sourcePoint" />
            <mxPoint x="343.30999999999995" y="150" as="targetPoint" />
          </mxGeometry>
        </mxCell>
        <mxCell id="4Jj8VpBBIwu2APV6J5tJ-3" value="&lt;font style=&quot;font-size: 50px;&quot;&gt;Enter username and&lt;br&gt;Password&lt;/font&gt;" style="shape=parallelogram;perimeter=parallelogramPerimeter;whiteSpace=wrap;html=1;fixedSize=1;" vertex="1" parent="1">
          <mxGeometry x="31.620000000000005" y="150" width="623.37" height="170" as="geometry" />
        </mxCell>
        <mxCell id="4Jj8VpBBIwu2APV6J5tJ-4" value="" style="endArrow=classic;html=1;rounded=0;exitX=0.5;exitY=1;exitDx=0;exitDy=0;entryX=0.5;entryY=0;entryDx=0;entryDy=0;" edge="1" parent="1" source="4Jj8VpBBIwu2APV6J5tJ-3" target="4Jj8VpBBIwu2APV6J5tJ-5">
          <mxGeometry width="50" height="50" relative="1" as="geometry">
            <mxPoint x="342.68" y="250" as="sourcePoint" />
            <mxPoint x="342.68" y="460" as="targetPoint" />
          </mxGeometry>
        </mxCell>
        <mxCell id="4Jj8VpBBIwu2APV6J5tJ-5" value="&lt;font style=&quot;font-size: 50px;&quot;&gt;Is Username&lt;br&gt;and Password&lt;br&gt;correct ?&lt;/font&gt;" style="rhombus;whiteSpace=wrap;html=1;" vertex="1" parent="1">
          <mxGeometry x="98.3" y="530" width="490" height="490" as="geometry" />
        </mxCell>
        <mxCell id="4Jj8VpBBIwu2APV6J5tJ-6" value="" style="endArrow=classic;html=1;rounded=0;exitX=0.5;exitY=1;exitDx=0;exitDy=0;entryX=0.5;entryY=0;entryDx=0;entryDy=0;" edge="1" parent="1" source="4Jj8VpBBIwu2APV6J5tJ-5" target="4Jj8VpBBIwu2APV6J5tJ-12">
          <mxGeometry width="50" height="50" relative="1" as="geometry">
            <mxPoint x="343.08" y="720" as="sourcePoint" />
            <mxPoint x="343.29999999999995" y="1230" as="targetPoint" />
          </mxGeometry>
        </mxCell>
        <mxCell id="4Jj8VpBBIwu2APV6J5tJ-7" value="&lt;font style=&quot;font-size: 50px;&quot;&gt;YES&lt;/font&gt;" style="edgeLabel;html=1;align=center;verticalAlign=middle;resizable=0;points=[];" vertex="1" connectable="0" parent="4Jj8VpBBIwu2APV6J5tJ-6">
          <mxGeometry x="-0.3333" y="3" relative="1" as="geometry">
            <mxPoint x="-3" y="30" as="offset" />
          </mxGeometry>
        </mxCell>
        <mxCell id="4Jj8VpBBIwu2APV6J5tJ-8" value="" style="endArrow=classic;html=1;rounded=0;exitX=1;exitY=0.5;exitDx=0;exitDy=0;" edge="1" parent="1" source="4Jj8VpBBIwu2APV6J5tJ-5">
          <mxGeometry width="50" height="50" relative="1" as="geometry">
            <mxPoint x="460" y="370" as="sourcePoint" />
            <mxPoint x="343" y="40" as="targetPoint" />
            <Array as="points">
              <mxPoint x="800" y="775" />
              <mxPoint x="800" y="40" />
            </Array>
          </mxGeometry>
        </mxCell>
        <mxCell id="4Jj8VpBBIwu2APV6J5tJ-9" value="&lt;font style=&quot;font-size: 50px;&quot;&gt;NO&lt;/font&gt;" style="edgeLabel;html=1;align=center;verticalAlign=middle;resizable=0;points=[];" vertex="1" connectable="0" parent="4Jj8VpBBIwu2APV6J5tJ-8">
          <mxGeometry x="-0.1466" y="-4" relative="1" as="geometry">
            <mxPoint y="-1" as="offset" />
          </mxGeometry>
        </mxCell>
        <mxCell id="4Jj8VpBBIwu2APV6J5tJ-10" value="" style="endArrow=classic;html=1;rounded=0;exitX=0.5;exitY=1;exitDx=0;exitDy=0;entryX=0.5;entryY=0;entryDx=0;entryDy=0;" edge="1" parent="1" source="4Jj8VpBBIwu2APV6J5tJ-12" target="4Jj8VpBBIwu2APV6J5tJ-15">
          <mxGeometry width="50" height="50" relative="1" as="geometry">
            <mxPoint x="343.29999999999995" y="1540" as="sourcePoint" />
            <mxPoint x="343.3000000000002" y="1750" as="targetPoint" />
          </mxGeometry>
        </mxCell>
        <mxCell id="4Jj8VpBBIwu2APV6J5tJ-11" value="" style="endArrow=classic;html=1;rounded=0;exitX=0.5;exitY=1;exitDx=0;exitDy=0;entryX=0.5;entryY=0;entryDx=0;entryDy=0;" edge="1" parent="1" target="4Jj8VpBBIwu2APV6J5tJ-12">
          <mxGeometry width="50" height="50" relative="1" as="geometry">
            <mxPoint x="343.29999999999995" y="1540" as="sourcePoint" />
            <mxPoint x="343" y="1750" as="targetPoint" />
          </mxGeometry>
        </mxCell>
        <mxCell id="4Jj8VpBBIwu2APV6J5tJ-12" value="&lt;font style=&quot;font-size: 50px;&quot;&gt;Add Model Test&lt;/font&gt;" style="shape=parallelogram;perimeter=parallelogramPerimeter;whiteSpace=wrap;html=1;fixedSize=1;" vertex="1" parent="1">
          <mxGeometry x="-145.04999999999998" y="1230" width="976.7" height="290" as="geometry" />
        </mxCell>
        <mxCell id="4Jj8VpBBIwu2APV6J5tJ-15" value="&lt;font style=&quot;font-size: 50px;&quot;&gt;Stop&lt;/font&gt;" style="ellipse;whiteSpace=wrap;html=1;" vertex="1" parent="1">
          <mxGeometry x="178.29999999999995" y="1750" width="330.01" height="220" as="geometry" />
        </mxCell>
      </root>
    </mxGraphModel>
  </diagram>
</mxfile>
